# xmcd
#
# Track frame offsets: 
#        150
#        19809
#        46193
#        65931
#        81016
#        103685
#        126581
#        148481
#
# Disc length: 2202 seconds
#
# Revision: 3
# Processed by: cddbd v1.5.2PL0 Copyright (c) Steve Scherf et al.
# Submitted via: ExactAudioCopyFreeDBPlugin 1.0
#
DISCID=79089808
DTITLE=Dexter Wansel - Life on Mars
DYEAR=1976
DGENRE=Soul
TTITLE0=A Prophet Named K.G.
TTITLE1=Life on Mars
TTITLE2=Together Once Again
TTITLE3=Stargazer
TTITLE4=One Million Miles from the Ground
TTITLE5=You Can Be What You Wanna Be
TTITLE6=Theme from The Planets
TTITLE7=Rings of Saturn
EXTD=
EXTT0=
EXTT1=
EXTT2=
EXTT3=
EXTT4=
EXTT5=
EXTT6=
EXTT7=
PLAYORDER=
